<svg width="16" height="16" viewBox="0 0 16 16" fill="none" xmlns="http://www.w3.org/2000/svg">
<g id=" arrow-down">
<g id="Icon">
<path fill-rule="evenodd" clip-rule="evenodd" d="M12.5123 8.90406C12.2763 8.6214 11.8563 8.58273 11.5737 8.81873L8.66699 11.2407V3.33073C8.66699 2.96273 8.36832 2.66406 8.00032 2.66406C7.63232 2.66406 7.33365 2.96273 7.33365 3.33073V11.2407L4.42699 8.81873C4.14365 8.58273 3.72365 8.6214 3.48832 8.90406C3.25232 9.18673 3.29032 9.6074 3.57365 9.84273L7.57365 13.1761C7.60499 13.2027 7.64232 13.2154 7.67699 13.2354C7.70432 13.2514 7.72832 13.2701 7.75832 13.2821C7.83632 13.3127 7.91765 13.3307 8.00032 13.3307C8.08299 13.3307 8.16432 13.3127 8.24232 13.2821C8.27232 13.2701 8.29632 13.2514 8.32365 13.2354C8.35832 13.2154 8.39565 13.2027 8.42699 13.1761L12.427 9.84273C12.7097 9.6074 12.7483 9.18673 12.5123 8.90406Z" fill="#EC6B66"/>
<path d="M12.5123 8.90406C12.2763 8.6214 11.8563 8.58273 11.5737 8.81873L8.66699 11.2407V3.33073C8.66699 2.96273 8.36832 2.66406 8.00032 2.66406C7.63232 2.66406 7.33365 2.96273 7.33365 3.33073V11.2407L4.42699 8.81873C4.14365 8.58273 3.72365 8.6214 3.48832 8.90406C3.25232 9.18673 3.29032 9.6074 3.57365 9.84273L7.57365 13.1761C7.60499 13.2027 7.64232 13.2154 7.67699 13.2354C7.70432 13.2514 7.72832 13.2701 7.75832 13.2821C7.83632 13.3127 7.91765 13.3307 8.00032 13.3307C8.08299 13.3307 8.16432 13.3127 8.24232 13.2821C8.27232 13.2701 8.29632 13.2514 8.32365 13.2354C8.35832 13.2154 8.39565 13.2027 8.42699 13.1761L12.427 9.84273C12.7097 9.6074 12.7483 9.18673 12.5123 8.90406" stroke="#EC6B66"/>
</g>
</g>
</svg>
