<svg width="20" height="17" viewBox="0 0 20 17" fill="none" xmlns="http://www.w3.org/2000/svg">
<g id="Frame 65227">
<path id="Vector" d="M0.909091 1.15455L2.07273 0L17.2727 15.2L16.1182 16.3636L13.3182 13.5636C12.2727 13.9091 11.1636 14.0909 10 14.0909C5.45455 14.0909 1.57273 11.2636 0 7.27273C0.627273 5.67273 1.62727 4.26364 2.9 3.14545L0.909091 1.15455ZM10 4.54545C10.7233 4.54545 11.417 4.83279 11.9285 5.34425C12.4399 5.85572 12.7273 6.54941 12.7273 7.27273C12.7277 7.58233 12.6755 7.88976 12.5727 8.18182L9.09091 4.7C9.38297 4.59726 9.69039 4.545 10 4.54545ZM10 0.454545C14.5455 0.454545 18.4273 3.28182 20 7.27273C19.258 9.15746 17.9972 10.7934 16.3636 11.9909L15.0727 10.6909C16.3299 9.82125 17.3438 8.6446 18.0182 7.27273C17.2832 5.77267 16.1422 4.50888 14.7248 3.625C13.3074 2.74113 11.6704 2.27262 10 2.27273C9.00909 2.27273 8.03636 2.43636 7.12727 2.72727L5.72727 1.33636C7.03636 0.772727 8.48182 0.454545 10 0.454545ZM1.98182 7.27273C2.71676 8.77278 3.85779 10.0366 5.27521 10.9204C6.69263 11.8043 8.32958 12.2728 10 12.2727C10.6273 12.2727 11.2455 12.2091 11.8182 12.0818L9.74545 10C9.11287 9.9322 8.52257 9.64989 8.0727 9.20002C7.62284 8.75016 7.34053 8.15985 7.27273 7.52727L4.18182 4.42727C3.28182 5.2 2.52727 6.16364 1.98182 7.27273Z" fill="#7B7AA0"/>
</g>
</svg>
