<svg xmlns="http://www.w3.org/2000/svg" width="12" height="12" viewBox="0 0 12 12" fill="none">
  <path d="M6.0957 11.5C9.13327 11.5 11.5957 9.03757 11.5957 6C11.5957 2.96243 9.13327 0.5 6.0957 0.5C3.05814 0.5 0.595703 2.96243 0.595703 6C0.595703 9.03757 3.05814 11.5 6.0957 11.5Z" fill="#FFE14D"/>
  <path d="M11.5957 6C11.5957 2.96729 9.12842 0.5 6.0957 0.5V11.5C9.12842 11.5 11.5957 9.03271 11.5957 6Z" fill="#FFBB33"/>
  <path d="M6.0957 10.1895C3.7857 10.1895 1.90625 8.31 1.90625 6C1.90625 3.69 3.7857 1.81055 6.0957 1.81055C8.4057 1.81055 10.2852 3.69 10.2852 6C10.2852 8.31 8.4057 10.1895 6.0957 10.1895Z" fill="#FFBB33"/>
  <path d="M10.2852 6C10.2852 3.69 8.4057 1.81055 6.0957 1.81055V10.1895C8.4057 10.1895 10.2852 8.31 10.2852 6Z" fill="#E68A2E"/>
  <path d="M6.41797 5.70089V4.42673C6.78862 4.51768 7.0625 4.75615 7.0625 5.03027C7.0625 5.2084 7.20664 5.35254 7.38477 5.35254C7.56289 5.35254 7.70703 5.2084 7.70703 5.03027C7.70703 4.40761 7.15271 3.887 6.41797 3.76729V3.41895C6.41797 3.24082 6.27383 3.09668 6.0957 3.09668C5.91758 3.09668 5.77344 3.24082 5.77344 3.41895V3.76729C5.03869 3.887 4.48438 4.40761 4.48438 5.03027C4.48438 5.65293 5.03869 6.17354 5.77344 6.29325V7.56741C5.40279 7.47646 5.12891 7.23799 5.12891 6.96387C5.12891 6.78574 4.98477 6.6416 4.80664 6.6416C4.62851 6.6416 4.48438 6.78574 4.48438 6.96387C4.48438 7.58653 5.03869 8.10714 5.77344 8.22685V8.57833C5.77344 8.75646 5.91758 8.9006 6.0957 8.9006C6.27383 8.9006 6.41797 8.75646 6.41797 8.57833V8.22685C7.15271 8.10714 7.70703 7.58653 7.70703 6.96387C7.70703 6.34121 7.15271 5.82058 6.41797 5.70089ZM5.12891 5.03027C5.12891 4.75615 5.40279 4.51768 5.77344 4.42673V5.63381C5.40279 5.54285 5.12891 5.30437 5.12891 5.03027ZM6.41797 7.56741V6.36033C6.78862 6.45127 7.0625 6.68975 7.0625 6.96387C7.0625 7.23799 6.78862 7.47644 6.41797 7.56741Z" fill="#FFE14D"/>
  <path d="M6.41797 8.57833V8.22685C7.15271 8.10714 7.70703 7.58653 7.70703 6.96387C7.70703 6.34121 7.15271 5.8206 6.41797 5.70089V4.42673C6.78862 4.51768 7.0625 4.75615 7.0625 5.03027C7.0625 5.2084 7.20664 5.35254 7.38477 5.35254C7.56289 5.35254 7.70703 5.2084 7.70703 5.03027C7.70703 4.40761 7.15271 3.887 6.41797 3.76729V3.41895C6.41797 3.24082 6.27383 3.09668 6.0957 3.09668V8.9006C6.27383 8.9006 6.41797 8.75646 6.41797 8.57833ZM6.41797 6.36031C6.78862 6.45125 7.0625 6.68973 7.0625 6.96385C7.0625 7.23797 6.78862 7.47644 6.41797 7.56739V6.36031Z" fill="#FFBB33"/>
</svg>