<svg width="24" height="24" viewBox="0 0 24 24" fill="none" xmlns="http://www.w3.org/2000/svg">
<g id="Frame 1686551982">
<path id="Vector (Stroke)" fill-rule="evenodd" clip-rule="evenodd" d="M11.4841 2.16056C11.7947 1.94648 12.2053 1.94648 12.5159 2.16056L21.6067 8.42596C21.8772 8.61236 22.0153 8.91912 21.9987 9.22474C21.9995 9.24064 21.9999 9.25662 21.9999 9.27267V19.1899C21.9999 20.1633 21.2591 21.0907 20.1818 21.0907H3.81825C2.74086 21.0907 2.00008 20.1633 2.00008 19.1899V9.27267C2.00008 9.25662 2.00051 9.24064 2.00134 9.22474C1.98472 8.91913 2.12282 8.61236 2.39328 8.42596L11.4841 2.16056ZM3.81825 10.9478V19.1899C3.81825 19.2324 3.83198 19.2595 3.84194 19.2726H20.1581C20.168 19.2595 20.1818 19.2324 20.1818 19.1899V10.9478L12.4954 15.9439C12.1942 16.1397 11.8058 16.1397 11.5046 15.9439L3.81825 10.9478ZM19.5301 9.2029L12 4.01316L4.46991 9.2029L12 14.0975L19.5301 9.2029Z" fill="#737890"/>
</g>
</svg>
