<svg width="10" height="11" viewBox="0 0 10 11" fill="none" xmlns="http://www.w3.org/2000/svg">
<g clip-path="url(#clip0_924_166393)">
<path d="M5 10.2383C2.5875 10.2383 0.625 8.27578 0.625 5.86328C0.625 3.45078 2.5875 1.48828 5 1.48828C7.4125 1.48828 9.375 3.45078 9.375 5.86328C9.375 8.27578 7.4125 10.2383 5 10.2383ZM5 2.11328C2.93125 2.11328 1.25 3.79453 1.25 5.86328C1.25 7.93203 2.93125 9.61328 5 9.61328C7.06875 9.61328 8.75 7.93203 8.75 5.86328C8.75 3.79453 7.06875 2.11328 5 2.11328Z" fill="black"/>
<path d="M5 8.05078C4.825 8.05078 4.6875 7.91328 4.6875 7.73828V3.98828C4.6875 3.81328 4.825 3.67578 5 3.67578C5.175 3.67578 5.3125 3.81328 5.3125 3.98828V7.73828C5.3125 7.91328 5.175 8.05078 5 8.05078Z" fill="black"/>
<path d="M6.875 6.17578H3.125C2.95 6.17578 2.8125 6.03828 2.8125 5.86328C2.8125 5.68828 2.95 5.55078 3.125 5.55078H6.875C7.05 5.55078 7.1875 5.68828 7.1875 5.86328C7.1875 6.03828 7.05 6.17578 6.875 6.17578Z" fill="black"/>
</g>
<defs>
<clipPath id="clip0_924_166393">
<rect width="10" height="10" fill="white" transform="translate(0 0.863281)"/>
</clipPath>
</defs>
</svg>
