<svg width="7" height="9" viewBox="0 0 7 9" fill="none" xmlns="http://www.w3.org/2000/svg">
<path fill-rule="evenodd" clip-rule="evenodd" d="M3.41035 6.25262C3.49485 6.25262 3.57984 6.27412 3.65634 6.31712L5.99971 7.64254V1.16691C5.99971 1.06641 5.93921 0.999919 5.89971 0.999919H1.09999C1.05999 0.999919 0.999992 1.06641 0.999992 1.16691V7.61654L3.15287 6.32412C3.23236 6.27662 3.32136 6.25262 3.41035 6.25262ZM0.499971 8.99949C0.414976 8.99949 0.329981 8.97799 0.253486 8.93449C0.0969945 8.846 0 8.67951 0 8.49952V1.16693C0 0.52347 0.493472 0 1.09994 0H5.89966C6.50613 0 6.9996 0.52347 6.9996 1.16693V8.49952C6.9996 8.67751 6.90511 8.842 6.75161 8.93149C6.59762 9.02149 6.40863 9.02299 6.25364 8.93499L3.4178 7.33108L0.756957 8.92849C0.677961 8.97549 0.588966 8.99949 0.499971 8.99949Z" fill="#8D9FB6"/>
</svg>
