<svg width="10" height="10" viewBox="0 0 10 10" fill="none" xmlns="http://www.w3.org/2000/svg">
<g id="Frame 1686552300">
<g id="Group 62401">
<path id="Icon" fill-rule="evenodd" clip-rule="evenodd" d="M8 8.5C8 8.7755 7.776 9 7.5 9H2.5C2.224 9 2 8.7755 2 8.5V3H8V8.5ZM4 1.164C4 1.0865 4.107 1 4.25 1H5.75C5.893 1 6 1.0865 6 1.164V2H4V1.164ZM9.5 2H9H7V1.164C7 0.522 6.4395 0 5.75 0H4.25C3.5605 0 3 0.522 3 1.164V2H1H0.5C0.225 2 0 2.225 0 2.5C0 2.775 0.225 3 0.5 3H1V8.5C1 9.327 1.673 10 2.5 10H7.5C8.327 10 9 9.327 9 8.5V3H9.5C9.775 3 10 2.775 10 2.5C10 2.225 9.775 2 9.5 2Z" fill="#8D9FB6"/>
</g>
</g>
</svg>
