<svg width="10" height="11" viewBox="0 0 10 11" fill="none" xmlns="http://www.w3.org/2000/svg">
<path fill-rule="evenodd" clip-rule="evenodd" d="M8 9.36328C8 9.63878 7.776 9.86328 7.5 9.86328H2.5C2.224 9.86328 2 9.63878 2 9.36328V3.86328H8V9.36328ZM4 2.02728C4 1.94978 4.107 1.86328 4.25 1.86328H5.75C5.893 1.86328 6 1.94978 6 2.02728V2.86328H4V2.02728ZM9.5 2.86328H9H7V2.02728C7 1.38528 6.4395 0.863281 5.75 0.863281H4.25C3.5605 0.863281 3 1.38528 3 2.02728V2.86328H1H0.5C0.225 2.86328 0 3.08828 0 3.36328C0 3.63828 0.225 3.86328 0.5 3.86328H1V9.36328C1 10.1903 1.673 10.8633 2.5 10.8633H7.5C8.327 10.8633 9 10.1903 9 9.36328V3.86328H9.5C9.775 3.86328 10 3.63828 10 3.36328C10 3.08828 9.775 2.86328 9.5 2.86328Z" fill="#2E3A59"/>
</svg>
