<svg xmlns="http://www.w3.org/2000/svg" width="10" height="12" viewBox="0 0 10 12" fill="none">
  <path fill-rule="evenodd" clip-rule="evenodd" d="M8.93691 0.5H0.65878C0.295527 0.5 0 0.802124 0 1.17348V10.8265C0 11.1979 0.295527 11.5 0.65878 11.5H8.93691C9.30017 11.5 9.59569 11.1979 9.59569 10.8265V1.17348C9.59569 0.802124 9.30017 0.5 8.93691 0.5ZM0.636719 6.32617H1.68674V7.39964H0.636719V6.32617ZM0.636719 4.60156H1.68674V5.67494H0.636719V4.60156ZM1.68674 3.94846H0.636719V2.875H1.68674V3.94846ZM0.636719 8.05078H1.68674V9.12424H0.636719V8.05078ZM2.32422 3.73828H7.27143V8.26125H2.32422V3.73828ZM8.95823 3.94846H7.9082V2.875H8.95823V3.94846ZM8.95823 5.67494H7.9082V4.60156H8.95823V5.67494ZM8.95823 7.39955H7.9082V6.32617H8.95823V7.39955ZM7.9082 8.05078H8.95823V9.12424H7.9082V8.05078ZM8.95823 1.1745V2.22581H7.9082V1.15234H8.93656C8.94854 1.15234 8.95823 1.16225 8.95823 1.1745ZM7.27143 3.0882H2.32422V1.15234H7.27143V3.0882ZM0.636719 1.1745C0.636719 1.16225 0.646406 1.15234 0.658391 1.15234H1.68674V2.22581H0.636719V1.1745ZM0.636719 10.8267V9.77539H1.68674V10.8489H0.658391C0.646406 10.8489 0.636719 10.839 0.636719 10.8267ZM2.32422 8.91406H7.27143V10.8499H2.32422V8.91406ZM8.95823 10.8267C8.95823 10.839 8.94854 10.8489 8.93656 10.8489H7.9082V9.77539H8.95823V10.8267Z" fill="#737890"/>
</svg>