<svg width="10" height="10" viewBox="0 0 10 10" fill="none" xmlns="http://www.w3.org/2000/svg">
<path id="Vector" d="M0.000302498 5.00008C0.00132046 4.0824 0.366322 3.20258 1.01523 2.55368C1.66413 1.90478 2.54394 1.53977 3.46163 1.53876H8.6868L8.18923 1.04167C8.11707 0.969505 8.07652 0.871628 8.07652 0.769572C8.07652 0.667515 8.11707 0.569638 8.18923 0.497473C8.2614 0.425308 8.35927 0.384766 8.46133 0.384766C8.56339 0.384766 8.66126 0.425308 8.73343 0.497473L9.88721 1.65125C9.92296 1.68697 9.95133 1.72938 9.97069 1.77607C9.99004 1.82276 10 1.87281 10 1.92335C10 1.97389 9.99004 2.02393 9.97069 2.07062C9.95133 2.11731 9.92296 2.15973 9.88721 2.19545L8.73343 3.34922C8.66126 3.42139 8.56339 3.46193 8.46133 3.46193C8.35927 3.46193 8.2614 3.42139 8.18923 3.34922C8.11707 3.27706 8.07652 3.17918 8.07652 3.07712C8.07652 2.97507 8.11707 2.87719 8.18923 2.80503L8.6868 2.30794H3.46163C2.74786 2.3087 2.06355 2.59258 1.55884 3.09729C1.05413 3.602 0.77025 4.28632 0.769487 5.00008C0.769487 5.10209 0.728967 5.19991 0.656842 5.27203C0.584717 5.34416 0.486895 5.38468 0.384895 5.38468C0.282894 5.38468 0.185072 5.34416 0.112947 5.27203C0.0408219 5.19991 0.000302498 5.10209 0.000302498 5.00008ZM9.61511 4.61549C9.51311 4.61549 9.41528 4.65601 9.34316 4.72814C9.27103 4.80026 9.23051 4.89808 9.23051 5.00008C9.22975 5.71385 8.94587 6.39817 8.44116 6.90288C7.93645 7.40759 7.25214 7.69147 6.53837 7.69223H1.3132L1.81077 7.19514C1.8465 7.15941 1.87485 7.11699 1.89419 7.0703C1.91352 7.02362 1.92348 6.97358 1.92348 6.92305C1.92348 6.87251 1.91352 6.82247 1.89419 6.77579C1.87485 6.7291 1.8465 6.68668 1.81077 6.65095C1.77504 6.61521 1.73262 6.58687 1.68593 6.56753C1.63924 6.54819 1.5892 6.53824 1.53867 6.53824C1.48814 6.53824 1.4381 6.54819 1.39141 6.56753C1.34473 6.58687 1.3023 6.61521 1.26657 6.65095L0.112796 7.80472C0.0770377 7.84044 0.0486705 7.88286 0.0293162 7.92955C0.00996187 7.97623 0 8.02628 0 8.07682C0 8.12736 0.00996187 8.17741 0.0293162 8.2241C0.0486705 8.27079 0.0770377 8.3132 0.112796 8.34892L1.26657 9.5027C1.3023 9.53843 1.34473 9.56677 1.39141 9.58611C1.4381 9.60545 1.48814 9.61541 1.53867 9.61541C1.5892 9.61541 1.63924 9.60545 1.68593 9.58611C1.73262 9.56677 1.77504 9.53843 1.81077 9.5027C1.8465 9.46696 1.87485 9.42454 1.89419 9.37786C1.91352 9.33117 1.92348 9.28113 1.92348 9.2306C1.92348 9.18007 1.91352 9.13003 1.89419 9.08334C1.87485 9.03665 1.8465 8.99423 1.81077 8.9585L1.3132 8.46141H6.53837C7.45606 8.4604 8.33587 8.0954 8.98477 7.44649C9.63368 6.79759 9.99868 5.91777 9.9997 5.00008C9.9997 4.89808 9.95918 4.80026 9.88705 4.72814C9.81493 4.65601 9.71711 4.61549 9.61511 4.61549Z" fill="black"/>
</svg>
