<svg width="24" height="24" viewBox="0 0 24 24" fill="none" xmlns="http://www.w3.org/2000/svg">
<g id="Frame 65226">
<path id="Vector" opacity="0.5" d="M11.619 17.2381C12.6667 17.2381 13.5238 16.381 13.5238 15.3333C13.5238 14.2857 12.6667 13.4286 11.619 13.4286C10.5714 13.4286 9.71429 14.2857 9.71429 15.3333C9.71429 16.381 10.5714 17.2381 11.619 17.2381ZM17.3333 8.66667H16.381V6.7619C16.381 4.13333 14.2476 2 11.619 2C8.99048 2 6.85714 4.13333 6.85714 6.7619H8.66667C8.66667 5.13333 9.99048 3.80952 11.619 3.80952C13.2476 3.80952 14.5714 5.13333 14.5714 6.7619V8.66667H5.90476C4.85714 8.66667 4 9.52381 4 10.5714V20.0952C4 21.1429 4.85714 22 5.90476 22H17.3333C18.381 22 19.2381 21.1429 19.2381 20.0952V10.5714C19.2381 9.52381 18.381 8.66667 17.3333 8.66667ZM17.3333 20.0952H5.90476V10.5714H17.3333V20.0952Z" fill="#03014C"/>
</g>
</svg>
