<svg width="10" height="10" viewBox="0 0 10 10" fill="none" xmlns="http://www.w3.org/2000/svg">
<g id="Frame 1686552302">
<path id="Icon" fill-rule="evenodd" clip-rule="evenodd" d="M6.35233 3.19728L4.46033 5.68178L3.64383 4.63878C3.47383 4.42078 3.15883 4.38278 2.94183 4.55328C2.72433 4.72328 2.68583 5.03778 2.85633 5.25478L4.07183 6.80828C4.16683 6.92928 4.31183 6.99978 4.46583 6.99978H4.46933C4.62383 6.99928 4.76983 6.92628 4.86333 6.80278L7.14783 3.80278C7.31533 3.58278 7.27283 3.26978 7.05283 3.10228C6.83233 2.93478 6.51933 2.97778 6.35233 3.19728ZM5 9C2.7945 9 1 7.2055 1 5C1 2.7945 2.7945 1 5 1C7.2055 1 9 2.7945 9 5C9 7.2055 7.2055 9 5 9ZM5 0C2.2385 0 0 2.239 0 5C0 7.761 2.2385 10 5 10C7.7615 10 10 7.761 10 5C10 2.239 7.7615 0 5 0Z" fill="#8D9FB6"/>
</g>
</svg>
