<svg width="13" height="11" viewBox="0 0 13 11" fill="none" xmlns="http://www.w3.org/2000/svg">
<path d="M6.24886 8.88846C4.37589 8.89776 2.73643 7.83781 2.17211 6.27113C2.06995 5.99219 2.06022 5.7365 2.17211 5.46222C2.76076 3.98387 3.904 3.14242 5.49967 2.89138C7.02238 2.64963 8.37481 3.04944 9.4694 4.11869C9.89751 4.53244 10.1845 5.03452 10.3645 5.58774C10.4229 5.77369 10.4278 5.9457 10.3645 6.13166C9.84886 7.60071 8.75913 8.45146 7.21211 8.80013C7.02238 8.84197 6.82778 8.86521 6.63805 8.88381C6.51157 8.90241 6.38021 8.88846 6.24886 8.88846ZM7.7813 5.87132C7.79589 5.09031 7.08075 4.39762 6.24886 4.39297C5.43643 4.38832 4.73589 5.03917 4.7067 5.83878C4.67751 6.61515 5.38778 7.30783 6.22454 7.32643C7.0467 7.34967 7.77157 6.67093 7.7813 5.87132Z" fill="#263238"/>
<path d="M0.00216216 9.02787C0.00216216 8.87911 -0.0027027 8.73499 0.00216216 8.58623C0.0118919 8.30265 0.196757 8.10739 0.469189 8.0795C0.765946 8.0516 0.994594 8.20037 1.06757 8.4793C1.12595 8.68386 1.09189 8.8977 1.09676 9.10226C1.10162 9.68337 1.21838 9.79959 1.81676 9.79959C2.00162 9.79959 2.19135 9.79494 2.37622 9.80424C2.67297 9.82284 2.89676 10.046 2.90162 10.3156C2.90649 10.576 2.70703 10.8131 2.41513 10.8363C2.06 10.8642 1.7 10.8828 1.34973 10.827C0.532432 10.7061 0.00702702 10.0971 0.00216216 9.30681C0.00216216 9.21383 0.00216216 9.12085 0.00216216 9.02787Z" fill="#263238"/>
<path d="M0.00219727 2.65413C0.0167919 2.47283 -0.0172622 2.25433 0.0362513 2.04048C0.211386 1.36639 0.819494 0.892199 1.54436 0.873604C1.8022 0.868955 2.06003 0.868955 2.32274 0.873604C2.65355 0.882902 2.89193 1.09675 2.90166 1.38498C2.91139 1.68251 2.67301 1.91031 2.3276 1.92426C2.08436 1.93355 1.84112 1.92426 1.59787 1.9289C1.28166 1.9382 1.10652 2.10556 1.09679 2.40774C1.09193 2.63089 1.10166 2.85404 1.09193 3.08183C1.07733 3.43515 0.858413 3.65365 0.527602 3.649C0.191927 3.64435 0.00706213 3.43515 0.00219727 3.05859C0.00219727 2.93307 0.00219727 2.8122 0.00219727 2.65413Z" fill="#263238"/>
<path d="M12.4904 2.71483C12.4904 2.85429 12.4952 2.99376 12.4904 3.13323C12.4806 3.41681 12.3006 3.61671 12.0331 3.64461C11.7315 3.67715 11.4931 3.51909 11.425 3.23085C11.3715 3.00306 11.4055 2.76596 11.4006 2.53817C11.3958 2.06863 11.2498 1.92916 10.7633 1.92451C10.559 1.92451 10.3596 1.92916 10.1552 1.91986C9.82443 1.90592 9.59091 1.67812 9.59578 1.38989C9.60064 1.11096 9.82443 0.883159 10.1455 0.87851C10.486 0.869213 10.8266 0.841319 11.1671 0.897106C11.9747 1.03657 12.4904 1.63163 12.4952 2.41265C12.4904 2.51492 12.4904 2.61255 12.4904 2.71483Z" fill="#263238"/>
<path d="M12.5001 9.02795C12.4904 9.22785 12.5049 9.4324 12.466 9.62766C12.3298 10.3203 11.6925 10.8271 10.9531 10.8457C10.6952 10.8503 10.4325 10.855 10.1747 10.8457C9.82441 10.8364 9.58603 10.6086 9.59089 10.311C9.59576 10.0228 9.82927 9.80896 10.1698 9.79967C10.4033 9.79037 10.6417 9.79967 10.8752 9.79502C11.206 9.78572 11.386 9.62301 11.3958 9.30688C11.4006 9.06514 11.386 8.82805 11.4055 8.5863C11.4298 8.25623 11.6731 8.05633 11.999 8.07492C12.3006 8.09352 12.4855 8.29807 12.4904 8.62814C12.4904 8.66069 12.4904 8.68858 12.4904 8.72112C12.4904 8.8234 12.4904 8.92102 12.4904 9.0233C12.4952 9.02795 12.5001 9.02795 12.5001 9.02795Z" fill="#263238"/>
</svg>
