<svg width="24" height="24" viewBox="0 0 24 24" fill="none" xmlns="http://www.w3.org/2000/svg">
<g id="Icon front">
<g id="Vector">
<path d="M6 19.5H3V22.5H6V19.5Z" fill="#ffffff"/>
<path d="M13.5 19.5H10.5V22.5H13.5V19.5Z" fill="#ffffff"/>
<path d="M21 19.5H18V22.5H21V19.5Z" fill="#ffffff"/>
<path d="M18.75 12H12.75V9H11.25V12H5.25C4.85232 12.0005 4.47105 12.1586 4.18984 12.4398C3.90864 12.721 3.75046 13.1023 3.75 13.5V18H5.25V13.5H11.25V18H12.75V13.5H18.75V18H20.25V13.5C20.2495 13.1023 20.0914 12.721 19.8102 12.4398C19.5289 12.1586 19.1477 12.0005 18.75 12Z" fill="#ffffff"/>
<path d="M15 7.5V1.5H9V7.5H15ZM10.5 6V3H13.5V6H10.5Z" fill="#ffffff"/>
</g>
</g>
</svg>
