<svg width="19" height="15" viewBox="0 0 19 15" fill="none" xmlns="http://www.w3.org/2000/svg">
<g id="checkmark">
<path id="Union" d="M6.3818 14.8223C6.64177 14.9384 6.92314 14.9991 7.20827 15L7.22215 15.0001L7.23481 14.9999C7.52147 14.9963 7.80374 14.9323 8.06374 14.8126C8.32255 14.6934 8.55315 14.5219 8.74182 14.3097L8.7443 14.3069L18.4114 3.53477C18.6003 3.34012 18.749 3.11044 18.8497 2.85922C18.9542 2.59825 19.0051 2.31891 18.9996 2.03815C18.9941 1.7574 18.9323 1.48023 18.8174 1.22353C18.7026 0.96679 18.5368 0.735375 18.3294 0.544093C18.1219 0.352763 17.8771 0.205678 17.6097 0.112884C17.3421 0.0200753 17.0583 -0.0162011 16.7758 0.00663533C16.4933 0.0294705 16.2191 0.110847 15.9701 0.245042C15.7321 0.37332 15.5223 0.547027 15.3518 0.755448L7.19122 9.84764L3.56997 5.91776C3.19774 5.51377 2.67923 5.2732 2.12702 5.25531C1.57472 5.23742 1.04151 5.44403 0.644047 5.82388C0.247223 6.20313 0.0180603 6.72352 0.00102067 7.26922C-0.0160175 7.81488 0.180778 8.34901 0.552429 8.7524L5.70116 14.3308C5.89166 14.5392 6.12309 14.7068 6.3818 14.8223Z" fill="#FFBB33"/>
</g>
</svg>
